<svg id="Capa_1" enable-background="new 0 0 511.953 511.953" height="512" viewBox="0 0 511.953 511.953" width="512" xmlns="http://www.w3.org/2000/svg"><g id="XMLID_1159_"><g id="XMLID_76_"><g id="XMLID_77_"><path id="XMLID_79_" d="m406.377 389.156c-.647-5.485-5.612-9.407-11.104-8.758-5.484.647-9.406 5.618-8.758 11.104 1.342 11.361 2.022 22.924 2.022 34.365v52.101c-22.445 19.529-56.617 18.618-77.969-2.733-3.904-3.903-10.236-3.904-14.142 0-22.304 22.303-58.595 22.303-80.898 0-3.905-3.904-10.237-3.904-14.142 0-21.352 21.353-55.523 22.262-77.969 2.733v-52.101c0-76.616 30.79-151.399 84.583-205.867h37.977v51.5c0 5.522 4.477 10 10 10s10-4.478 10-10v-51.5h20v93.5c0 5.522 4.477 10 10 10s10-4.478 10-10v-91.467c24.232 24.99 43.625 53.8 57.694 85.734 1.649 3.742 5.313 5.971 9.157 5.971 1.347 0 2.715-.274 4.026-.852 5.054-2.227 7.346-8.129 5.12-13.184-14.783-33.553-35.079-63.869-60.373-90.258 14.88-18.542 26.518-39.177 34.685-61.512 24.944-3.545 44.191-25.033 44.191-50.94v-45.529c0-28.377-23.087-51.463-51.464-51.463h-42.037c-5.523 0-10 4.478-10 10 0 22.607-18.393 41-41 41s-41-18.393-41-41c0-5.522-4.477-10-10-10h-42.036c-28.377 0-51.463 23.086-51.463 51.463v45.528c0 25.908 19.247 47.395 44.191 50.94 8.167 22.335 19.805 42.97 34.684 61.511-26.652 27.802-47.712 59.897-62.642 95.543-16.119 38.486-24.292 79.156-24.292 120.882v56.438c0 2.652 1.054 5.195 2.929 7.071 27.845 27.846 71.843 29.933 102.11 6.261 27.814 21.754 67.226 21.753 95.04.001 13.909 10.878 30.711 16.315 47.52 16.314 19.768-.002 39.542-7.527 54.591-22.576 1.875-1.876 2.929-4.419 2.929-7.071v-56.438c-.001-12.222-.727-24.574-2.16-36.711zm-274.9-292.165v-45.528c0-17.349 14.114-31.463 31.463-31.463h32.856c4.786 28.894 29.951 51 60.181 51s55.395-22.106 60.181-51h32.856c17.349 0 31.463 14.114 31.463 31.463v45.528c0 17.35-14.114 31.464-31.463 31.464h-15.132c-5.523 0-10 4.478-10 10s4.477 10 10 10h.757c-7.685 18.679-18.13 35.957-31.152 51.545h-95.02c-13.022-15.587-23.467-32.865-31.152-51.545h.757c5.523 0 10-4.478 10-10s-4.477-10-10-10h-15.132c-17.349 0-31.463-14.114-31.463-31.464z"/><path id="XMLID_78_" d="m380.787 339.084c-1.86 1.86-2.93 4.43-2.93 7.07 0 2.63 1.07 5.21 2.93 7.069 1.86 1.86 4.44 2.931 7.07 2.931s5.21-1.07 7.07-2.931c1.86-1.859 2.93-4.439 2.93-7.069 0-2.641-1.07-5.21-2.93-7.07s-4.44-2.93-7.07-2.93-5.21 1.07-7.07 2.93z"/></g></g></g></svg>